<?xml version="1.0" encoding="UTF-8"?>
<svg width="1200pt" height="1200pt" version="1.1" viewBox="0 0 1200 1200" xmlns="http://www.w3.org/2000/svg">
 <path transform="scale(2.3438)" d="m286.1 296.52c0 11-11.47 26.42-29.33 26.42s-29.33-15.38-29.33-26.42 11.47-11 29.33-11 29.33-0.04 29.33 11zm0 0" stroke="#000" stroke-linecap="round" stroke-linejoin="round" stroke-width="20"/>
 <path transform="scale(2.3438)" d="m156.24 248.63h60.95" fill="none" stroke="#000" stroke-linecap="round" stroke-linejoin="round" stroke-width="20"/>
 <path transform="scale(2.3438)" d="m171.32 263.71c4 0 7.8367-1.5883 10.667-4.4167 2.83-2.8267 4.42-6.6633 4.4233-10.663h-30.17c0 4 1.5883 7.835 4.4167 10.663 2.8283 2.8283 6.6633 4.4167 10.663 4.4167zm0 0" stroke="#000" stroke-linecap="round" stroke-linejoin="round" stroke-width="20"/>
 <path transform="scale(2.3438)" d="m296.35 248.63h60.95" fill="none" stroke="#000" stroke-linecap="round" stroke-linejoin="round" stroke-width="20"/>
 <path transform="scale(2.3438)" d="m311.43 263.71c4 0 7.835-1.5883 10.663-4.4167 2.8283-2.8283 4.4167-6.6633 4.4167-10.663h-30.16c0 4 1.5883 7.835 4.4167 10.663 2.8283 2.8283 6.6633 4.4167 10.663 4.4167zm0 0" stroke="#000" stroke-linecap="round" stroke-linejoin="round" stroke-width="20"/>
 <path transform="scale(2.3438)" d="m256.77 322.94v35.14" fill="none" stroke="#000" stroke-linecap="round" stroke-linejoin="round" stroke-width="20"/>
 <path transform="scale(2.3438)" d="m327.41 379.79s-23.51-21.63-69.79-21.63-69.79 21.63-69.79 21.63" fill="none" stroke="#000" stroke-linecap="round" stroke-linejoin="round" stroke-width="20"/>
 <path d="m1088.4 690.59v-1.5234c-0.11719-2.3438-0.28125-4.6875-0.49219-7.0312-0.32812-3.7031-0.72656-7.4297-1.1719-11.156-16.266-159.94-40.922-645.09-138.4-645.09-70.312 0-145.31 131.25-190.62 214.83 0 0-9-1.8281-23.438-4.3125l-9.2344-1.5703-5.0625-0.82031c-5.1797-0.84375-10.758-1.7109-16.617-2.5781l-2.9531-0.44531c-3.9609-0.58594-8.0391-1.1484-12.234-1.7344l-3.1406-0.42188c-28.191-3.9961-56.605-6.2266-85.078-6.6797-28.48 0.45703-56.902 2.6992-85.102 6.7031l-3.1641 0.42188c-4.1719 0.58594-8.2734 1.1484-12.234 1.7344l-2.9531 0.44531c-5.8594 0.86719-11.438 1.7344-16.617 2.5781l-5.0391 0.82031-9.375 1.5703c-14.391 2.4844-23.438 4.3125-23.438 4.3125-45.117-83.602-120.19-214.85-190.45-214.85-97.477 0-122.16 485.16-138.28 645-0.44531 3.7266-0.84375 7.4531-1.1719 11.156-0.21094 2.3438-0.35156 4.6875-0.49219 7.0312v1.5234c0 2.3438-0.16406 4.6875-0.1875 7.0312v0.53906c0 2.3438 0 4.875 0.11719 7.3359v0.72656c0 2.4844 0.23438 4.9922 0.39844 7.5v0.70312c0.375 5.2266 0.9375 10.453 1.7109 15.727v0.35156c0.79688 5.4062 1.7734 10.875 2.9297 16.406 23.977 111.75 126 230.88 236.46 314.91-97.383-102.63-128.6-213.96-159.05-282.42-29.016-65.273-26.039-142.29 26.555-190.62 9.0703-8.3438 17.906-14.602 25.781-17.133 67.172-21.656 74.039-39.844 79.008-69.375 6.5625-39.328 41.953-60.938 88.383-57.375 28.5 2.2031 36.234-24.82 40.195-34.383 16.922-40.898 45.164-31.758 107.81 18.492 34.734 27.82-28.734-91.406 38.18-91.406 66.914 0 3.4688 119.18 38.18 91.406 62.719-50.25 90.938-59.391 107.81-18.492 3.9375 9.5625 11.719 36.586 40.195 34.383 46.406-3.5859 81.797 18.047 88.383 57.375 4.9453 29.602 11.836 47.719 78.984 69.375 7.8516 2.5312 16.664 8.7891 25.781 17.133 52.617 48.328 55.57 125.34 26.555 190.62-30.469 68.461-61.641 179.79-159.02 282.42 110.46-84.094 212.51-203.23 236.46-314.93 1.1719-5.4375 2.1328-10.875 2.9297-16.406v-0.35156c0.77344-5.2734 1.3359-10.5 1.7344-15.727v-0.70313c0.1875-2.5078 0.30469-5.0156 0.39844-7.5v-0.72656-7.3359-0.53906c0.23437-2.2031 0.1875-4.5469 0.070312-6.9141zm-902.79-217.97c11.484-151.66 32.016-377.46 77.789-377.46 39.117 0 97.336 110.16 127.8 171.68-83.18 49.055-155.3 123.19-205.59 205.8zm623.09-205.8c30.469-61.523 88.711-171.68 127.8-171.68 45.773 0 66.305 225.8 77.789 377.48-50.273-82.594-122.41-156.73-205.59-205.78z"/>
 <path transform="scale(2.3438)" d="m256 501.12c-67.31 0-216.36-118.62-208.17-210.12l0.5-4.71c6.91-68.24 17.43-275.29 59.03-275.29 30 0 62 56 81.33 91.67" fill="none" stroke="#000" stroke-linecap="round" stroke-linejoin="round" stroke-width="20"/>
 <path transform="scale(2.3438)" d="m256 501.12c67.31 0 216.37-118.62 208.17-210.16l-0.49-4.71c-6.92-68.2-17.44-275.25-59.04-275.25-30 0-62 56-81.34 91.67" fill="none" stroke="#000" stroke-linecap="round" stroke-linejoin="round" stroke-width="20"/>
 <path transform="scale(2.3438)" d="m323.3 102.67s-39.3-7.93-67.3-7.93-67.31 7.93-67.31 7.93" fill="none" stroke="#000" stroke-linecap="round" stroke-linejoin="round" stroke-width="20"/>
</svg>
